<svg aria-hidden="true" style="position: absolute; width: 0; height: 0; overflow: hidden;" version="1.1" xmlns="http://www.w3.org/2000/svg" xmlns:xlink="http://www.w3.org/1999/xlink">
<defs>
<symbol id="icon-chevron-down-solid" viewBox="0 0 28 32">
<title>chevron-down-solid</title>
<path d="M12.939 23.842l-12.146-12.146c-0.586-0.586-0.586-1.536 0-2.121l1.417-1.417c0.585-0.585 1.533-0.586 2.119-0.002l9.672 9.626 9.672-9.626c0.586-0.583 1.534-0.582 2.119 0.002l1.417 1.417c0.586 0.586 0.586 1.536 0 2.121l-12.146 12.146c-0.586 0.586-1.536 0.586-2.121 0z"></path>
</symbol>
<symbol id="icon-chevron-right-solid" viewBox="0 0 20 32">
<title>chevron-right-solid</title>
<path d="M17.842 17.061l-12.146 12.146c-0.586 0.586-1.536 0.586-2.121 0l-1.417-1.417c-0.585-0.585-0.586-1.533-0.002-2.119l9.626-9.672-9.626-9.672c-0.583-0.586-0.582-1.534 0.002-2.119l1.417-1.417c0.586-0.586 1.536-0.586 2.121 0l12.146 12.146c0.586 0.586 0.586 1.536 0 2.121z"></path>
</symbol>
<symbol id="icon-chevron-up-solid" viewBox="0 0 28 32">
<title>chevron-up-solid</title>
<path d="M15.061 8.158l12.146 12.146c0.586 0.586 0.586 1.536 0 2.121l-1.417 1.417c-0.585 0.585-1.533 0.586-2.119 0.003l-9.672-9.626-9.672 9.626c-0.586 0.583-1.534 0.582-2.119-0.003l-1.417-1.417c-0.586-0.586-0.586-1.536 0-2.121l12.146-12.146c0.586-0.586 1.536-0.586 2.121-0z"></path>
</symbol>
<symbol id="icon-history-solid" viewBox="0 0 32 32">
<title>history-solid</title>
<path d="M31.5 15.971c0.016 8.54-6.949 15.523-15.489 15.529-3.688 0.003-7.076-1.283-9.739-3.432-0.692-0.559-0.744-1.596-0.115-2.225l0.704-0.704c0.538-0.538 1.397-0.597 1.993-0.124 1.962 1.557 4.444 2.486 7.145 2.486 6.357 0 11.5-5.144 11.5-11.5 0-6.357-5.144-11.5-11.5-11.5-3.051 0-5.822 1.186-7.879 3.121l3.172 3.172c0.63 0.63 0.184 1.707-0.707 1.707h-9.086c-0.552 0-1-0.448-1-1v-9.086c0-0.891 1.077-1.337 1.707-0.707l3.086 3.086c2.783-2.659 6.554-4.293 10.707-4.293 8.551 0 15.484 6.924 15.5 15.471zM20.193 20.895l0.614-0.789c0.509-0.654 0.391-1.596-0.263-2.105l-2.544-1.979v-6.522c0-0.828-0.672-1.5-1.5-1.5h-1c-0.828 0-1.5 0.672-1.5 1.5v8.478l4.088 3.18c0.654 0.509 1.596 0.391 2.105-0.263z"></path>
</symbol>
<symbol id="icon-list-solid" viewBox="0 0 32 32">
<title>list-solid</title>
<path d="M8 7.25v-2.5c0-0.552 0.448-1 1-1h22c0.552 0 1 0.448 1 1v2.5c0 0.552-0.448 1-1 1h-22c-0.552 0-1-0.448-1-1zM9 18.25h22c0.552 0 1-0.448 1-1v-2.5c0-0.552-0.448-1-1-1h-22c-0.552 0-1 0.448-1 1v2.5c0 0.552 0.448 1 1 1zM9 28.25h22c0.552 0 1-0.448 1-1v-2.5c0-0.552-0.448-1-1-1h-22c-0.552 0-1 0.448-1 1v2.5c0 0.552 0.448 1 1 1zM1 9h4c0.552 0 1-0.448 1-1v-4c0-0.552-0.448-1-1-1h-4c-0.552 0-1 0.448-1 1v4c0 0.552 0.448 1 1 1zM1 19h4c0.552 0 1-0.448 1-1v-4c0-0.552-0.448-1-1-1h-4c-0.552 0-1 0.448-1 1v4c0 0.552 0.448 1 1 1zM1 29h4c0.552 0 1-0.448 1-1v-4c0-0.552-0.448-1-1-1h-4c-0.552 0-1 0.448-1 1v4c0 0.552 0.448 1 1 1z"></path>
</symbol>
<symbol id="icon-pencil-alt-solid" viewBox="0 0 32 32">
<title>pencil-alt-solid</title>
<path d="M31.119 8.881l-2.881 2.881c-0.294 0.294-0.769 0.294-1.063 0l-6.938-6.938c-0.294-0.294-0.294-0.769 0-1.063l2.881-2.881c1.169-1.169 3.069-1.169 4.244 0l3.756 3.756c1.175 1.169 1.175 3.069 0 4.244zM17.762 6.237l-16.413 16.413-1.325 7.594c-0.181 1.025 0.713 1.912 1.738 1.738l7.594-1.331 16.413-16.413c0.294-0.294 0.294-0.769 0-1.063l-6.938-6.938c-0.3-0.294-0.775-0.294-1.069 0zM7.756 21.244c-0.344-0.344-0.344-0.894 0-1.238l9.625-9.625c0.344-0.344 0.894-0.344 1.238 0s0.344 0.894 0 1.238l-9.625 9.625c-0.344 0.344-0.894 0.344-1.237 0zM5.5 26.5h3v2.269l-4.031 0.706-1.944-1.944 0.706-4.031h2.269v3z"></path>
</symbol>
<symbol id="icon-plus-solid" viewBox="0 0 28 32">
<title>plus-solid</title>
<path d="M26 13h-9v-9c0-1.104-0.896-2-2-2h-2c-1.104 0-2 0.896-2 2v9h-9c-1.104 0-2 0.896-2 2v2c0 1.104 0.896 2 2 2h9v9c0 1.104 0.896 2 2 2h2c1.104 0 2-0.896 2-2v-9h9c1.104 0 2-0.896 2-2v-2c0-1.104-0.896-2-2-2z"></path>
</symbol>
<symbol id="icon-search-solid" viewBox="0 0 32 32">
<title>search-solid</title>
<path d="M31.563 27.669l-6.231-6.231c-0.281-0.281-0.663-0.438-1.063-0.438h-1.019c1.725-2.206 2.75-4.981 2.75-8 0-7.181-5.819-13-13-13s-13 5.819-13 13 5.819 13 13 13c3.019 0 5.794-1.025 8-2.75v1.019c0 0.4 0.156 0.781 0.438 1.063l6.231 6.231c0.587 0.587 1.538 0.587 2.119 0l1.769-1.769c0.587-0.587 0.587-1.538 0.006-2.125zM13 21c-4.419 0-8-3.575-8-8 0-4.419 3.575-8 8-8 4.419 0 8 3.575 8 8 0 4.419-3.575 8-8 8z"></path>
</symbol>
<symbol id="icon-share-alt-solid" viewBox="0 0 28 32">
<title>share-alt-solid</title>
<path d="M22 20c-1.413 0-2.712 0.489-3.737 1.306l-6.405-4.003c0.090-0.391 0.142-0.841 0.142-1.303s-0.052-0.911-0.15-1.343l0.008 0.040 6.405-4.003c1.025 0.817 2.324 1.306 3.737 1.306 3.314 0 6-2.686 6-6s-2.686-6-6-6-6 2.686-6 6c0 0.447 0.049 0.883 0.142 1.303l-6.405 4.003c-1.025-0.817-2.324-1.306-3.737-1.306-3.314 0-6 2.686-6 6s2.686 6 6 6c1.413 0 2.712-0.489 3.737-1.306l6.405 4.003c-0.090 0.391-0.142 0.84-0.142 1.301 0 0.001 0 0.001 0 0.002v-0c0 3.314 2.686 6 6 6s6-2.686 6-6-2.686-6-6-6z"></path>
</symbol>
<symbol id="icon-user-solid" viewBox="0 0 28 32">
<title>user-solid</title>
<path d="M14 16c4.419 0 8-3.581 8-8s-3.581-8-8-8-8 3.581-8 8 3.581 8 8 8zM19.6 18h-1.044c-1.387 0.637-2.931 1-4.556 1s-3.162-0.363-4.556-1h-1.044c-4.638 0-8.4 3.762-8.4 8.4v2.6c0 1.656 1.344 3 3 3h22c1.656 0 3-1.344 3-3v-2.6c0-4.637-3.762-8.4-8.4-8.4z"></path>
</symbol>
<symbol id="icon-video-solid" viewBox="0 0 36 32">
<title>video-solid</title>
<path d="M21.012 4h-18.025c-1.65 0-2.987 1.338-2.987 2.987v18.025c0 1.65 1.337 2.988 2.987 2.988h18.025c1.65 0 2.988-1.337 2.988-2.988v-18.025c0-1.65-1.337-2.987-2.988-2.987zM32.85 6.356l-6.85 4.725v9.838l6.85 4.719c1.325 0.913 3.15-0.019 3.15-1.613v-16.056c0-1.588-1.819-2.525-3.15-1.612z"></path>
</symbol>
<symbol id="icon-close" viewBox="0 0 22 28">
<title>close</title>
<path d="M20.281 20.656c0 0.391-0.156 0.781-0.438 1.062l-2.125 2.125c-0.281 0.281-0.672 0.438-1.062 0.438s-0.781-0.156-1.062-0.438l-4.594-4.594-4.594 4.594c-0.281 0.281-0.672 0.438-1.062 0.438s-0.781-0.156-1.062-0.438l-2.125-2.125c-0.281-0.281-0.438-0.672-0.438-1.062s0.156-0.781 0.438-1.062l4.594-4.594-4.594-4.594c-0.281-0.281-0.438-0.672-0.438-1.062s0.156-0.781 0.438-1.062l2.125-2.125c0.281-0.281 0.672-0.438 1.062-0.438s0.781 0.156 1.062 0.438l4.594 4.594 4.594-4.594c0.281-0.281 0.672-0.438 1.062-0.438s0.781 0.156 1.062 0.438l2.125 2.125c0.281 0.281 0.438 0.672 0.438 1.062s-0.156 0.781-0.438 1.062l-4.594 4.594 4.594 4.594c0.281 0.281 0.438 0.672 0.438 1.062z"></path>
</symbol>
</defs>
</svg>
